<svg xmlns="http://www.w3.org/2000/svg" viewBox="0 0 64 64" width="64" height="64">
  <defs>
    <linearGradient id="bg" x1="0" y1="0" x2="1" y2="1">
      <stop offset="0%" stop-color="#3371fc"/>
      <stop offset="100%" stop-color="#131e56"/>
    </linearGradient>
    <linearGradient id="shield" x1="0" y1="0" x2="0" y2="1">
      <stop offset="0%" stop-color="#ffffff"/>
      <stop offset="100%" stop-color="#d9e8ff"/>
    </linearGradient>
  </defs>
  <rect x="4" y="4" width="56" height="56" rx="14" fill="url(#bg)"/>
  <path d="M32 14 L46 20 V32 C46 41 40 47 32 50 C24 47 18 41 18 32 V20 Z" fill="url(#shield)"/>
  <path d="M27 36 C27 33.2 29 30.8 31.6 30.2 L31.6 27 A2.4 2.4 0 0 1 36.4 27 L36.4 30.2 C39 30.8 41 33.2 41 36 C41 39.9 37.9 43 34 43 C30.1 43 27 39.9 27 36 Z" fill="#1d50f1"/>
  <rect x="31.2" y="37" width="5.6" height="8" rx="2.6" fill="#1d50f1"/>
</svg>
